HIERARCHY
ROOT hip
{
  OFFSET -152.135 80.4527 -38.0106
  CHANNELS 6 Xposition Yposition Zposition Zrotation Xrotation Yrotation
  JOINT abdomen
  {
    OFFSET 0 20.6881 -0.73152
    CHANNELS 3 Zrotation Xrotation Yrotation
    JOINT chest
    {
      OFFSET 0 11.7043 -0.48768
      CHANNELS 3 Zrotation Xrotation Yrotation
      JOINT neck
      {
        OFFSET 0 22.1894 -2.19456
        CHANNELS 3 Zrotation Xrotation Yrotation
        JOINT head
        {
          OFFSET -0.24384 7.07133 1.2192
          CHANNELS 3 Zrotation Xrotation Yrotation
          JOINT leftEye
          {
            OFFSET 4.14528 8.04674 8.04672
            CHANNELS 3 Zrotation Xrotation Yrotation
            End Site
            {
              OFFSET 1 0 0
            }
          }
          JOINT rightEye
          {
            OFFSET -3.6576 8.04674 8.04672
            CHANNELS 3 Zrotation Xrotation Yrotation
            End Site
            {
              OFFSET 1 0 0
            }
          }
        }
      }
      JOINT rCollar
      {
        OFFSET -2.68224 19.2634 -4.8768
        CHANNELS 3 Zrotation Xrotation Yrotation
        JOINT rShldr
        {
          OFFSET -8.77824 -1.95073 1.46304
          CHANNELS 3 Zrotation Xrotation Yrotation
          JOINT rForeArm
          {
            OFFSET -28.1742 -1.7115 0.48768
            CHANNELS 3 Zrotation Xrotation Yrotation
            JOINT rHand
            {
              OFFSET -22.5879 0.773209 7.07136
              CHANNELS 3 Zrotation Xrotation Yrotation
              JOINT rThumb1
              {
                OFFSET -1.2192 -0.487915 3.41376
                CHANNELS 3 Zrotation Xrotation Yrotation
                JOINT rThumb2
                {
                  OFFSET -3.37035 -0.52449 3.41376
                  CHANNELS 3 Zrotation Xrotation Yrotation
                  End Site
                  {
                    OFFSET -1.78271 -1.18214 1.43049
                  }
                }
              }
              JOINT rIndex1
              {
                OFFSET -7.75947 0.938293 5.60832
                CHANNELS 3 Zrotation Xrotation Yrotation
                JOINT rIndex2
                {
                  OFFSET -2.54057 -0.884171 1.56538
                  CHANNELS 3 Zrotation Xrotation Yrotation
                  End Site
                  {
                    OFFSET -1.62519 -0.234802 1.16502
                  }
                }
              }
              JOINT rMid1
              {
                OFFSET -8.24714 1.18213 3.41376
                CHANNELS 3 Zrotation Xrotation Yrotation
                JOINT rMid2
                {
                  OFFSET -3.10165 -0.590103 1.0647
                  CHANNELS 3 Zrotation Xrotation Yrotation
                  End Site
                  {
                    OFFSET -2.48547 -0.328903 0.83742
                  }
                }
              }
              JOINT rRing1
              {
                OFFSET -8.82822 0.546677 1.51678
                CHANNELS 3 Zrotation Xrotation Yrotation
                JOINT rRing2
                {
                  OFFSET -2.60934 -0.819778 -0.0198488
                  CHANNELS 3 Zrotation Xrotation Yrotation
                  End Site
                  {
                    OFFSET -2.33842 -0.294052 0.168128
                  }
                }
              }
              JOINT rPinky1
              {
                OFFSET -8.27202 -0.0477905 -0.4584
                CHANNELS 3 Zrotation Xrotation Yrotation
                JOINT rPinky2
                {
                  OFFSET -1.82734 -0.647385 -0.700984
                  CHANNELS 3 Zrotation Xrotation Yrotation
                  End Site
                  {
                    OFFSET -1.69225 -0.51767 -0.607171
                  }
                }
              }
            }
          }
        }
      }
      JOINT lCollar
      {
        OFFSET 2.68224 19.2634 -4.8768
        CHANNELS 3 Zrotation Xrotation Yrotation
        JOINT lShldr
        {
          OFFSET 8.77824 -1.95073 1.46304
          CHANNELS 3 Zrotation Xrotation Yrotation
          JOINT lForeArm
          {
            OFFSET 28.1742 -1.7115 0.48768
            CHANNELS 3 Zrotation Xrotation Yrotation
            JOINT lHand
            {
              OFFSET 22.5879 0.773209 7.07136
              CHANNELS 3 Zrotation Xrotation Yrotation
              JOINT lThumb1
              {
                OFFSET 1.2192 -0.487915 3.41376
                CHANNELS 3 Zrotation Xrotation Yrotation
                JOINT lThumb2
                {
                  OFFSET 3.37035 -0.52449 3.41376
                  CHANNELS 3 Zrotation Xrotation Yrotation
                  End Site
                  {
                    OFFSET 1.78271 -1.18214 1.43049
                  }
                }
              }
              JOINT lIndex1
              {
                OFFSET 7.75947 0.938293 5.60832
                CHANNELS 3 Zrotation Xrotation Yrotation
                JOINT lIndex2
                {
                  OFFSET 2.54057 -0.884171 1.56538
                  CHANNELS 3 Zrotation Xrotation Yrotation
                  End Site
                  {
                    OFFSET 1.62519 -0.234802 1.16502
                  }
                }
              }
              JOINT lMid1
              {
                OFFSET 8.24714 1.18213 3.41376
                CHANNELS 3 Zrotation Xrotation Yrotation
                JOINT lMid2
                {
                  OFFSET 3.10165 -0.590103 1.0647
                  CHANNELS 3 Zrotation Xrotation Yrotation
                  End Site
                  {
                    OFFSET 2.48547 -0.328903 0.83742
                  }
                }
              }
              JOINT lRing1
              {
                OFFSET 8.82822 0.546677 1.51678
                CHANNELS 3 Zrotation Xrotation Yrotation
                JOINT lRing2
                {
                  OFFSET 2.60934 -0.819778 -0.0198488
                  CHANNELS 3 Zrotation Xrotation Yrotation
                  End Site
                  {
                    OFFSET 2.33842 -0.294052 0.168128
                  }
                }
              }
              JOINT lPinky1
              {
                OFFSET 8.27202 -0.0477905 -0.4584
                CHANNELS 3 Zrotation Xrotation Yrotation
                JOINT lPinky2
                {
                  OFFSET 1.82734 -0.647385 -0.700984
                  CHANNELS 3 Zrotation Xrotation Yrotation
                  End Site
                  {
                    OFFSET 1.69225 -0.51767 -0.607171
                  }
                }
              }
            }
          }
        }
      }
    }
  }
  JOINT rButtock
  {
    OFFSET -8.77824 4.35084 1.2192
    CHANNELS 3 Zrotation Xrotation Yrotation
    JOINT rThigh
    {
      OFFSET 0 -1.70687 -2.19456
      CHANNELS 3 Zrotation Xrotation Yrotation
      JOINT rShin
      {
        OFFSET 0 -36.8199 0.73152
        CHANNELS 3 Zrotation Xrotation Yrotation
        JOINT rFoot
        {
          OFFSET 0.73152 -45.1104 -5.12064
          CHANNELS 3 Zrotation Xrotation Yrotation
          End Site
          {
            OFFSET -1.1221 -3.69964 12.103
          }
        }
      }
    }
  }
  JOINT lButtock
  {
    OFFSET 8.77824 4.35084 1.2192
    CHANNELS 3 Zrotation Xrotation Yrotation
    JOINT lThigh
    {
      OFFSET 0 -1.70687 -2.19456
      CHANNELS 3 Zrotation Xrotation Yrotation
      JOINT lShin
      {
        OFFSET 0 -36.8199 0.73152
        CHANNELS 3 Zrotation Xrotation Yrotation
        JOINT lFoot
        {
          OFFSET -0.73152 -45.1104 -5.12064
          CHANNELS 3 Zrotation Xrotation Yrotation
          End Site
          {
            OFFSET 1.1221 -3.69964 12.103
          }
        }
      }
    }
  }
}
MOTION
Frames:	4
Frame Time:	0.00833333
244.138 84.0842 15.1606 1.17499 0.00318794 -0.022011 -1.54496 -0.00284641 -0.042052 -0.42543 0.0011096 -0.0736764 -3.98109e-015 -7.95139e-016 2.98177e-016 -1.20234e-014 3.18055e-015 9.16273e-016 -0 0 0 -0 0 0 -1.79042e-015 5.43552e-018 3.97569e-016 -4.01965e-014 8.07563e-017 3.97569e-015 -7.20843e-013 2.19061e-013 6.36111e-014 -8.24043e-012 -1.86733e-013 6.17028e-013 -1.9438e-011 6.8051e-014 1.49804e-012 -3.35775e-011 1.20861e-013 2.59295e-012 -1.94336e-011 6.75868e-014 1.49168e-012 7.73091 5.47488 0.417314 -1.94384e-011 6.80837e-014 1.49804e-012 2.90554 0.965183 0.102902 -1.94329e-011 6.84813e-014 1.49645e-012 10.2786 0.731801 0.0259123 -1.94429e-011 6.87795e-014 1.5044e-012 2.22167 -0.733487 -0.20892 -1.78784e-015 7.76503e-018 9.93923e-017 -4.33162e-014 1.80149e-016 2.5842e-015 -7.20296e-013 -2.07929e-013 8.5875e-014 -8.2373e-012 2.44232e-013 6.13847e-013 -1.94275e-011 7.49801e-014 1.50122e-012 -3.35393e-011 1.30403e-013 2.59454e-012 -1.94324e-011 7.55382e-014 1.51076e-012 -7.73091 5.47488 -0.417314 -1.94262e-011 7.45443e-014 1.49486e-012 -2.90554 0.965183 -0.102902 -1.94345e-011 7.524e-014 1.50281e-012 -10.2786 0.731801 -0.0259123 -1.94256e-011 7.71284e-014 1.49486e-012 -2.22167 -0.733487 0.20892 -2.03217e-016 0 -3.88251e-019 -0.631527 -1.92333 -0.00658838 -0.00945186 -2.07853 -0.0781716 -0.541 3.99724 0.144575 2.03217e-016 0 3.88251e-019 -1.71422 -6.54909 0.158524 -0.00227275 6.30065 -0.0690906 0.55927 0.243954 -0.0686207 
240.995 81.9165 9.71902 7.80663 14.3087 26.824 -3.32105 1.02335 -0.244383 0.583814 0.643259 -0.215714 0.807182 4.08326 -1.0272 -0.239899 -10.9011 -2.21313 -0 0 0 -0 0 0 2.23325e-014 -6.76219e-013 -2.54033e-015 22.5021 2.11957 2.38448 -3.75771 -1.62367 5.95811 0.0187099 3.0462 0.425962 -2.6651e-010 -6.98445e-011 2.10115e-010 -4.5806e-010 -1.22528e-010 3.65722e-010 -2.66505e-010 -6.98454e-011 2.10112e-010 7.73091 5.47488 0.417314 -2.6651e-010 -6.98451e-011 2.10116e-010 2.90554 0.965183 0.102902 -2.66505e-010 -6.98449e-011 2.10117e-010 10.2786 0.731801 0.0259123 -2.66515e-010 -6.98444e-011 2.10126e-010 2.22167 -0.733487 -0.20892 2.23606e-014 -6.76218e-013 -2.83851e-015 -22.167 -4.51678 0.162726 1.48677 -0.473426 -2.49577 -0.11158 7.58595 -1.03476 -6.58151e-011 -2.52019e-010 -6.08623e-010 -1.25511e-010 -4.31686e-010 -1.04905e-009 -6.58185e-011 -2.52017e-010 -6.08614e-010 -7.73091 5.47488 -0.417314 -6.58122e-011 -2.52019e-010 -6.0863e-010 -2.90554 0.965183 -0.102902 -6.58197e-011 -2.52018e-010 -6.08622e-010 -10.2786 0.731801 -0.0259123 -6.5812e-011 -2.52017e-010 -6.08631e-010 -2.22167 -0.733487 0.20892 -2.03217e-016 0 -3.88251e-019 -1.7492 -4.93909 0.240368 -0.0525057 14.128 0.105352 -0.535854 8.23128 1.59376 2.03217e-016 0 3.88251e-019 -2.55254 -14.5173 -0.212933 0.104744 14.5575 -0.0252466 0.217944 -1.76697 -2.14929 
240.173 82.022 9.93253 2.11109 18.8578 57.971 -5.17696 2.10541 -0.443282 1.65263 1.32772 -0.361538 1.82157 8.38762 -2.13155 -1.47377 -22.3737 -4.83725 -0 0 0 -0 0 0 4.5596e-014 -1.36324e-012 -6.60027e-015 46.0675 4.44258 4.93534 -7.39156 -3.29826 12.3153 -0.0110195 6.23554 0.876045 -5.16647e-010 -1.76747e-010 4.98886e-010 -8.86956e-010 -3.09001e-010 8.67352e-010 -5.16641e-010 -1.76749e-010 4.98887e-010 7.73091 5.47488 0.417314 -5.16646e-010 -1.76748e-010 4.98888e-010 2.90554 0.965183 0.102902 -5.1664e-010 -1.76749e-010 4.98891e-010 10.2786 0.731801 0.0259123 -5.1665e-010 -1.76748e-010 4.98901e-010 2.22167 -0.733487 -0.20892 4.56554e-014 -1.36325e-012 -6.89845e-015 -45.5704 -9.51619 0.371994 2.98977 -0.960569 -5.09517 0.0839185 15.7801 -2.21771 -6.9629e-011 -5.46042e-010 -1.32084e-009 -1.45628e-010 -9.35769e-010 -2.27739e-009 -6.96307e-011 -5.46038e-010 -1.32083e-009 -7.73091 5.47488 -0.417314 -6.96242e-011 -5.46041e-010 -1.32085e-009 -2.90554 0.965183 -0.102902 -6.96309e-011 -5.46039e-010 -1.32084e-009 -10.2786 0.731801 -0.0259123 -6.96245e-011 -5.46039e-010 -1.32085e-009 -2.22167 -0.733487 0.20892 -2.03217e-016 0 -3.88251e-019 -2.8785 -8.04283 0.534048 -0.22475 31.1565 0.34016 -0.777832 12.7993 3.19685 2.03217e-016 0 3.88251e-019 -3.54021 -23.0089 -0.639911 0.204355 23.3165 0.0248383 -0.302738 -3.85362 -4.36527 
239.136 82.2115 10.1156 -4.75656 8.99116 81.7645 -6.85147 3.07558 -0.649863 2.61186 1.9275 -0.50003 2.86922 12.2338 -3.14527 -3.63689 -32.4893 -7.73604 -0 0 0 -0 0 0 7.05783e-014 -2.02867e-012 -8.41612e-015 66.9759 6.31454 7.19242 -10.2755 -4.6607 17.9284 -0.0812255 9.13657 1.29248 -7.60655e-010 -2.0967e-010 6.2735e-010 -1.30702e-009 -3.67825e-010 1.09198e-009 -7.60649e-010 -2.09671e-010 6.27353e-010 7.73091 5.47488 0.417314 -7.60654e-010 -2.09671e-010 6.27353e-010 2.90554 0.965183 0.102902 -7.60648e-010 -2.09672e-010 6.27358e-010 10.2786 0.731801 0.0259123 -7.60658e-010 -2.09671e-010 6.27368e-010 2.22167 -0.733487 -0.20892 7.06574e-014 -2.02867e-012 -8.7143e-015 -66.4222 -13.5499 0.500596 4.33694 -1.4095 -7.48933 0.545634 22.7269 -3.33641 -1.5859e-010 -7.56208e-010 -1.82887e-009 -3.09453e-010 -1.29532e-009 -3.15233e-009 -1.58591e-010 -7.56202e-010 -1.82886e-009 -7.73091 5.47488 -0.417314 -1.58584e-010 -7.56207e-010 -1.82888e-009 -2.90554 0.965183 -0.102902 -1.5859e-010 -7.56205e-010 -1.82887e-009 -10.2786 0.731801 -0.0259123 -1.58585e-010 -7.56205e-010 -1.82888e-009 -2.22167 -0.733487 0.20892 -2.03217e-016 0 -3.88251e-019 -3.90525 -10.9698 0.745213 -0.555445 46.5392 0.672727 -1.19331 16.6571 4.63861 2.03217e-016 0 3.88251e-019 -4.58165 -30.4494 -1.08273 0.276317 31.0711 0.074765 -0.903767 -5.75738 -6.33968 
